<svg xmlns="http://www.w3.org/2000/svg" width="228.26" height="184.351" viewBox="0 0 228.26 184.351"><g transform="translate(-87.993 -2962)"><path d="M11.914,61.168a3.765,3.765,0,0,1-1.252-.269,14.246,14.246,0,0,1-7.407-6.75c-4.339-8.88-4.34-18.017,0-27.932C7.365,16.807,12.1,9.949,18.166,4.638c3.082-2.7,6.877-3.491,10.548-4.258Q29.361.245,30,.107A4.776,4.776,0,0,1,31.009,0c2.994,0,6,2.868,6.845,6.531a41.4,41.4,0,0,1,.8,8.353c-.809,14.143-4.53,26.334-11.374,37.271A26.8,26.8,0,0,1,19.845,59.5a4.755,4.755,0,0,1-2.892.787c-.4,0-.807-.023-1.2-.045l-.045,0c-.375-.021-.762-.042-1.143-.042-.171,0-.332,0-.492.014h-.016a1.866,1.866,0,0,1-.644-.232l-.067-.031a2.125,2.125,0,0,0-.8-.265.393.393,0,0,0-.317.133c-.171.2-.2.62-.1,1.285a.032.032,0,0,1-.008.027C12.1,61.154,12.025,61.168,11.914,61.168Zm9.3-48.24c-.528,0-.837.427-1.135.84-.074.1-.148.206-.224.3A68.273,68.273,0,0,0,10.735,29.31a35.522,35.522,0,0,0-3.23,10.546,6.371,6.371,0,0,0,1.343,5.025,4.953,4.953,0,0,0,3.756,1.6,7.605,7.605,0,0,0,2.989-.662,15.228,15.228,0,0,0,6.734-5.663c4.158-6.223,6.836-13.78,8.187-23.1,0-.266.006-.525.011-.774.037-1.812.064-3.123-1.721-3.648a3.054,3.054,0,0,0-.853-.137c-1.178,0-1.63.939-2.108,1.935l-.01.02c-.087.18-.177.367-.271.546-.044.083-.087.172-.131.262-.283.577-.6,1.23-1.378,1.23a1.5,1.5,0,0,1-.179-.011c-1.149-.138-1.445-1.042-1.583-1.906-.017-.106-.028-.22-.039-.33-.053-.537-.108-1.092-.729-1.262A1.185,1.185,0,0,0,21.217,12.928Z" transform="translate(87.993 2983.164)" fill="#e8c307"/><path d="M12.132,54.226h0c-3.64,0-6.891-2.66-9.155-7.489A34.562,34.562,0,0,1,.006,32.049C-.143,21.678,2.481,13.12,8.264,5.115A15.562,15.562,0,0,1,12.657.759,4.96,4.96,0,0,1,15.2,0a3.647,3.647,0,0,1,3.565,2.835c.421,1.513,1.129,1.877,2.559,2.124,6.39,1.1,10.806,5.776,10.99,11.644a48.382,48.382,0,0,1-2.7,17.982,44.888,44.888,0,0,1-9.5,15.445C17.556,52.775,14.8,54.226,12.132,54.226ZM8.217,18.307C6.113,25.189,6.533,31.214,9.5,36.725c1.2,2.232,2.6,3.364,4.172,3.364,1.389,0,2.839-.9,4.309-2.665a27.308,27.308,0,0,0,4.692-9.363c1.586-5.039-.154-8.527-5.171-10.369a4.512,4.512,0,0,0-1.532-.325c-1.074,0-1.725.677-1.99,2.071-.29,1.523-.864,3.271-2.752,3.271l-.138,0c-1.7-.072-1.945-1.427-2.182-2.736-.059-.329-.121-.668-.205-.977a.76.76,0,0,0-.143-.218c-.078-.1-.186-.247-.347-.47Z" transform="translate(283.913 2967.55)" fill="#e8c307"/><path d="M10.932,54.4h0c-2.758,0-5.046-1.521-6.616-4.4C-.093,41.929-1.111,34.264,1.2,26.569A51.242,51.242,0,0,1,11.684,7.042c.584-.665,1.462-1.548,2.345-1.548a1.293,1.293,0,0,1,.35.047,3.3,3.3,0,0,0,.874.129c1.362,0,2.028-1.065,2.616-2.005l.111-.177A6.925,6.925,0,0,1,24.218,0a11.414,11.414,0,0,1,1.919.174c4.131.707,6.691,2.729,7.827,6.18A15.042,15.042,0,0,1,34.5,13.3c-.46,9.791-4.271,18.809-8.136,27.208-1.944,4.224-4.906,9.464-10.609,12.525A10.273,10.273,0,0,1,10.932,54.4Zm3.807-40.748c-.574,0-.942.548-1.11.875-2.914,5.634-6.216,12.019-6.9,19.441.123,2.084.564,4.621,2.907,5.741A2.788,2.788,0,0,0,10.838,40c1.474,0,2.68-1.251,3.745-2.355l.15-.156A43.922,43.922,0,0,0,25.592,17.271c.428-1.7-.358-2.829-2.473-3.541a4.154,4.154,0,0,0-1.308-.252c-.965,0-1.627.56-2.084,1.762-.419,1.112-.976,2.3-2.285,2.3a2.4,2.4,0,0,1-.335-.024c-.982-.14-1.126-.92-1.267-1.675a4.292,4.292,0,0,0-.23-.889,2.029,2.029,0,0,1-.116-.461c-.063-.367-.128-.746-.606-.826A.979.979,0,0,0,14.739,13.651Z" transform="translate(216.11 2987.333)" fill="#e8c307"/><path d="M10.839,58.167a10.443,10.443,0,0,1-5.29-1.358,5.761,5.761,0,0,1-1.77-1.921,4.85,4.85,0,0,0-2.1-2.052c1.379-1.5.537-2.461-.278-3.391A3.436,3.436,0,0,1,.38,47.71C-.586,38.863.264,32.563,3.222,26.646A45.842,45.842,0,0,1,16.865,9.916a2.234,2.234,0,0,0,.908-1.809,11.065,11.065,0,0,1,.645-3.144C19.765,1.716,21.678,0,23.949,0c1.6,0,3.352.832,5.2,2.474a16.906,16.906,0,0,1,5.7,13.746c-.194,8.6-3.126,16.45-6.113,23.758a50.887,50.887,0,0,1-8.761,14.264A12.307,12.307,0,0,1,10.839,58.167ZM19.368,16.39A3.046,3.046,0,0,0,17.3,17.677l-.029.03c-.1.1-.192.2-.289.3A40.068,40.068,0,0,0,10.168,27l-.1.194c-1.892,3.514-3.849,7.147-3.337,11.452l.032.271c.316,2.694.644,5.48,3.565,6.351a5.329,5.329,0,0,0,1.52.23c2.344,0,4.242-1.68,5.945-3.495a1.725,1.725,0,0,0,.178-.24,2.149,2.149,0,0,1,.139-.2c4.609-5.568,6.539-12.39,7.987-18.348A9.95,9.95,0,0,0,23.151,13.4a3.428,3.428,0,0,0-.937,2.093c-.019.111-.038.219-.059.327-.133.68-.533,1.12-1.019,1.12a1.017,1.017,0,0,1-.518-.156A2.456,2.456,0,0,0,19.368,16.39Z" transform="translate(263.492 3038.283)" fill="#e8c307"/><path d="M6.1,54.34c-1.61,0-2.529-1.286-3.282-2.677A23.1,23.1,0,0,1,.508,35.707,85.457,85.457,0,0,1,13.023,5.186,23.443,23.443,0,0,1,17.012.827,2.694,2.694,0,0,1,18.741,0c.867,0,1.534.741,1.879,2.084.034.135.061.276.087.413.117.617.238,1.254,1.091,1.489,3.648,1,4.527,4.04,5.377,6.979.12.413.24.829.365,1.229a12.4,12.4,0,0,1,.384,3.207c.025.62.052,1.319.116,2.079a62.119,62.119,0,0,1-8.392,27.436c-.319.55-.676,1.084-1.021,1.6s-.7,1.043-1.008,1.58c-2.376,4.07-6.12,6.112-11.443,6.242ZM17.572,14.306a3.286,3.286,0,0,0-3.357,2.165,9.437,9.437,0,0,1-1.167,2.124C9.008,23.955,7.7,30.36,6.443,36.554c-.161.791-.328,1.608-.5,2.418.019.234.028.479.037.715.044,1.163.09,2.365,1.257,2.938a1.738,1.738,0,0,0,.768.187,3.636,3.636,0,0,0,2.123-1.1l.027-.022c.144-.118.28-.23.418-.336a14.44,14.44,0,0,0,3.4-3.816,49.541,49.541,0,0,0,7.064-18.812c.394-2.55-.06-3.913-1.389-4.168A11.164,11.164,0,0,0,17.572,14.306Z" transform="translate(137.255 3020.7)" fill="#e8c307"/><path d="M7.434,48.791a7.6,7.6,0,0,1-2.376-.417c1.2-.56,1.819-1.187,1.8-1.819S6.17,45.312,5.088,44.9c-3.44-1.311-4.046-4.238-4.632-7.067C.38,37.469.3,37.058.206,36.669a13.756,13.756,0,0,1,.453-6.4C2.8,21.9,6.544,13.685,12.456,4.434a9.66,9.66,0,0,1,1.518-1.7A9.407,9.407,0,0,0,15.641.826,1.615,1.615,0,0,1,17.009,0a1.576,1.576,0,0,1,.507.086c.746.252,1.024.757.932,1.688a4.717,4.717,0,0,0,1.727,4c3.335,3.277,2.937,7.822,2.618,11.473a60.576,60.576,0,0,1-9.768,27.874C11.4,47.625,9.627,48.791,7.434,48.791ZM8.139,20.94a.425.425,0,0,0-.372.322.53.53,0,0,0,.193.606c1.706,1.26,1.105,2.615.525,3.925l-.008.018c-.116.262-.236.533-.331.795-.979,2.687-1.94,5.869-.942,9.654a14.541,14.541,0,0,0,3.346-4.927c.258-.531.522-1.074.8-1.6A35.733,35.733,0,0,0,15.11,17.065c.093-.688.084-1.513-.813-1.781a1.189,1.189,0,0,0-.341-.053c-.611,0-.974.541-1.294,1.019l-.036.054a3.062,3.062,0,0,0-.315.777c-.12.392-.233.761-.485.883-.541.264-.747.936-.945,1.584-.254.83-.517,1.688-1.486,1.688a3.06,3.06,0,0,1-1.139-.272A.3.3,0,0,0,8.139,20.94Z" transform="translate(175.583 3066.9)" fill="#e8c307"/><path d="M11.072,20.887c-.211-.734-.423-1.47-.73-2.541a26.9,26.9,0,0,0-4.9,9.432A3.178,3.178,0,0,0,8.871,31.81a6.789,6.789,0,0,0,5.339-3.275c3.316-4.88,4.794-10.506,5.646-16.192a9.572,9.572,0,0,0-1-5.859C17.941,4.87,19.784.8,21.687.188c2.382-.767,3.512.955,4.323,2.691,1.6,3.421,1.04,7.133.713,10.654a53.073,53.073,0,0,1-7.247,22.4c-1.829,3.078-3.928,5.908-7.824,6.467-6.638.952-9.36.254-11.085-6.415C-1.707,27.2,3.113,15.01,10.6,9.739a2.77,2.77,0,0,1,2.747-.66c1.231.475,1.052,1.606,1.094,2.531.155,3.443-1.387,6.379-2.692,9.376Z" transform="translate(163.439 2962)" fill="#e8c307"/><path d="M4.22,45.8c-2.125.184-3.679-.65-3.773-2.678C.282,39.54-.516,36.2.528,32.277A59.254,59.254,0,0,1,8.693,14.218c1.638-2.436.971-5.144,2-7.58a15.515,15.515,0,0,1,3.47-5.4C15.2.261,16.3-.476,17.773.371A3.678,3.678,0,0,1,19.82,3.95C20.359,15.914,15.83,26.58,11.8,37.4a27.733,27.733,0,0,1-3.8,6.5A3.953,3.953,0,0,1,4.22,45.8Z" transform="translate(216.21 3100.524)" fill="#e8c307"/></g></svg>