<svg xmlns="http://www.w3.org/2000/svg" width="124.397" height="112.417" viewBox="0 0 124.397 112.417"><g transform="translate(-1193 -1605)"><path d="M19.531,3.1c-.045.124-.156.435-.3.827l.447.215c.1.346.621.712.3,1.18-.288.421.473.866-.109,1.208a3.272,3.272,0,0,1-.933,2.137c-.371.56-.462,1.259-1.024,1.745a7.63,7.63,0,0,0-1.134,1.657l-1.037.046.22.7-.494.557.374,1.149-.594.677.582.207-.807.573.252.295c-.885.329-1.673-.464-2.648-.08-.6.435-1.05,1.322-1.946,1.65-.346.127-.05.76-.642.686-.211-.026-.055.652-.549.52-.184.615-.733.862-1.165,1.249a6.577,6.577,0,0,0-.976,1.157c-.241.348-.5.685-.754,1.023a9.507,9.507,0,0,0-.692.917c-.162.281-.148.761-.367.888a.97.97,0,0,0-.558.751l-.643-.383c-.552.27-1.106.527-1.656-.148V23.1C1.625,22.507.52,21.987.025,20.641c.039-.444-.177-1.073.25-1.593-.62-1.239-.082-2.288.516-3.321A13.243,13.243,0,0,1,3.56,12.445c-.65-.976-1.33-1.885-1.884-2.865A4.945,4.945,0,0,1,.852,7.4a4.135,4.135,0,0,1,.2-2.443c.213-.363.008-.888.247-1.366a4.42,4.42,0,0,1,.452-.882c.119-.148.114-.4.212-.791.22-.2.772-.48.887-.88C3.02.458,3.764.68,3.753,0l.41.311L5.182.01,5.56.727,4.669,2.34,6.276,2.18l.377.377-.6,1.171,1.148.118c-.1.472-.2.946-.3,1.412l-.544.486c.12.12.17.184.18.178.174-.1.345-.2.552-.327.07.187.114.3.17.451l-1.148.581.62.207-.97.972L7.1,8.86a1.963,1.963,0,0,0,1.7-.6C10,7.228,11.317,6.327,12.5,5.289A15.851,15.851,0,0,0,15.845,1.76,5.319,5.319,0,0,1,16.7.883h1.407c.077.1.209.266.346.438L17.937,2.8l1.223-.336Z" transform="translate(1297.298 1660.401)" fill="#fad104"/><path d="M5.563,29.084l-1.251.388.28-.6c-.307-.462-.654-.876-1.288-.784l-.124-.475h-1.1c-.11-.11-.206-.163-.231-.238a5.176,5.176,0,0,0-.512-1.515c-.4-.514-.2-1.018-.217-1.516a4.658,4.658,0,0,1,.247-1.224,17.736,17.736,0,0,1,1.611-4.142,21.755,21.755,0,0,1,1.449-2.338c.519-.728,1.127-1.393,1.714-2.108-.159-.1-.334-.221-.515-.328a23.255,23.255,0,0,1-4.712-3.79A4.563,4.563,0,0,1,.039,7.967,4.8,4.8,0,0,1,.026,6.9c.359-.685,1.083-.743,1.785-1.022l.754,1.327L2.846,7c.092.091.253.179.3.308A2.849,2.849,0,0,0,4.762,8.849c1.4.7,2.819,1.375,4.325,2.107A5.753,5.753,0,0,1,10.3,9.727c.471-.264.5-1.018,1.231-.945l-.287-.352.772-.54.4-.89.743-.043-.3-.389c.568-.083.605-.67.963-.986a9.166,9.166,0,0,0,1-1.251l.32.235.217-.512.346.28a5.235,5.235,0,0,1,1.273-2.368A6.464,6.464,0,0,1,19.046,0l.461.379A3.654,3.654,0,0,1,17.993,2.2V3.267c.183-.045.369-.036.407-.108a7.336,7.336,0,0,0,.325-.749L20.534.92c.037.5.061.825.084,1.138l-.511.21c.041.057.093.168.12.162.324-.067.645-.151,1.04-.248l.385.678-.256.284c.056.387.521.729.161,1.172l-.293-.266c-.044.083-.13.171-.112.226a3.64,3.64,0,0,0,.244.5,2.718,2.718,0,0,1-1.119,1.588c-.476.434-1,.815-1.613,1.306l.717.413-.345.661.274.3-.887.144.272.692h-.89l-.446.915.345.371-.873.163c.086.227.165.432.258.676l-.795.117.3.8-.907-.352-.434.827c.051.1.071.2.131.236.106.058.25.047.355.106.409.228.5.758.907.985a3.131,3.131,0,0,1,.9,1.04,1.5,1.5,0,0,1,.406,1.048c-.01.146.121.3.2.484l-.309.525c-.361.042-.624.525-1.283.27a14.978,14.978,0,0,0-3.6-1c-.07-.008-.127-.119-.241-.233L11.533,18.2c-.006.049-.03.259-.057.486l-.882.139.719,1.01-.794-.232-.29.343c.155.428.03.69-.471.974l-.414,1.489-.516.19.293.293a6.917,6.917,0,0,0-1.167.925,5.768,5.768,0,0,0-.614,1.28l.248.372-.862.888.326.407-.6.691v.779Z" transform="translate(1226.447 1662.568)" fill="#fad104"/><path d="M19.466,1.72c.618.747.618.748,1.367.334a3.932,3.932,0,0,0,.065.64,1.454,1.454,0,0,0,.227.367l-.239.239.657.308-.877,1.249c.369.664-.412.781-.524,1.137-.173.549-.84.667-.86,1.254-.022.684-.724.768-1.029,1.167-.265.346-.735.573-.8,1.015l.325.558L16.7,10.6l-.834.394-.845,1v.262l-2.575,1.894.691.352L12,16.093l2.989,1.02-.295.592,1.333.475v.581l.83.763q.025.471.047.9l.485.484-1.23,1.023c-.29.322-.592.263-.916.048a.658.658,0,0,0-.356-.1A10.644,10.644,0,0,1,11,20.926c-.926-.338-1.818-.771-2.778-1.185-.262.261-.67.459-.723,1l-1.656.393L5.13,20.41l.3-.328-.36-.748-1.136.175c-.2-.39-.375-.742-.557-1.1l-.174.174-1.005-1.02c.128-.927-.466-1.992-.306-3.143a1.069,1.069,0,0,0-.346-.772C.754,12.9.72,11.836.35,10.925a3.641,3.641,0,0,1-.3-1.209,9.908,9.908,0,0,1,.016-2C.241,6.692.435,5.6,1.629,5.2a9.185,9.185,0,0,1,1.349-.234V7.046l1.207-.777c.063.184.138.4.213.623l.2-.153v1.23l.553-.281a1.835,1.835,0,0,1,.474,1.784l.592.209c-.105.286-.211.57-.338.914.154-.028.232-.02.275-.054.1-.082.175-.229.289-.272C7.584,9.835,8.158,8.622,9.3,8.2c.23-.83,1.105-1.007,1.616-1.566a13.5,13.5,0,0,1,1.924-1.444c.621-.469.971-1.26,1.781-1.509A5.787,5.787,0,0,1,16.877,1.43c-.033-.656.869-.738.848-1.43H18.93l.338.338c-.577.287-.788.844-1.157,1.433.8.165,1.258-.807,2.01-.358Z" transform="translate(1245.413 1695.259)" fill="#fad104"/><path d="M.031,17.336c-.062-.625.817-.693.4-1.276l-.3.263c-.031-.032-.086-.06-.091-.1A2.1,2.1,0,0,1,.45,14.419c.511-.586,1.018-1.177,1.508-1.781a5.257,5.257,0,0,0,.4-.7c-.242-.631-.574-1.285-.862-1.934-.309-.7-.3-1.455-.639-2.145-.179-.367.288-1.01.178-1.459-.123-.5-.42-.93.014-1.4.009-1.324.909-2.15,1.7-3.069H4.975l.468.444L4.39,3.714l.276.588c.125,0,.366.072.451-.013.372-.365.8-.218,1.193-.261l.4.865-.723.9L7.2,5.952V7.233c.9.029,1-1.064,1.762-1.06a7.518,7.518,0,0,1,1.3-1.31c.523-.483,1.02-.994,1.513-1.508.454-.474.914-.946,1.322-1.458.42-.527.78-1.1,1.023-1.45L15.374,0a1.969,1.969,0,0,1,.387.583c.041.169-.094.394-.185.577a1.451,1.451,0,0,0-.244.762l1.208-.51.845,1.647a2.859,2.859,0,0,0,.007.505,4.283,4.283,0,0,0,.182.649l-.24.42.3.328c-.774,1.24-1.471,2.523-2.321,3.724-.713,1.008-.613,1.078-1.136,1.363l.235.261-3.171,3.554v.444l2.491,1.586-.313.615c.32.275.535.8,1.155.609l.355.706-.308.428.962.963-.346.892.284.488c-.047.1-.062.206-.12.245-.131.086-.324.1-.42.211-.575.649-.678.685-1.4.438a17.718,17.718,0,0,1-2.8-.975,39.574,39.574,0,0,1-3.359-2.282,12.242,12.242,0,0,0-1.592,1.446,4.672,4.672,0,0,1-2.156,1.279c.168-.277.236-.39.385-.637l-1.6.3-.086-.172.9-.7-.465-.465H1.909l-.417-1.049H.384Z" transform="translate(1261.748 1665.517)" fill="#fad104"/><path d="M14.082,24.737l-1.433.344c-.586-.433-1.286-.972-2.009-1.478a15.4,15.4,0,0,0-2.595-1.8c-.228-.1-.467-.17-.784-.283-.384-.575-.428-1.642-1.554-1.525-.509-.466-.571-1.274-1.316-1.353a5.072,5.072,0,0,0-.717-1.186A15.226,15.226,0,0,1,.247,12.513C.168,11.907.167,11.1.037,10.288a3.067,3.067,0,0,1,1.58-3.081c.305-.2.463-.624.97-.578A4.231,4.231,0,0,0,3.78,6.358l.554.493c-.377.633-1.089,1.032-1.143,1.882.839.28,1.214-.652,2.058-.759l.457.409L4.836,9.688c.577-.182.987-.185,1.138-.385.383-.5,1-.707,1.361-1.269A4.663,4.663,0,0,1,8.78,6.758,28.494,28.494,0,0,0,10.96,4.9,30.624,30.624,0,0,1,14.3,2.327a6.67,6.67,0,0,0,1.238-1.211C15.9.735,16.475.568,16.59,0h1.8V1.16l-.43.431c.238-.043.476-.076.709-.129s.47-.126.83-.225a2.465,2.465,0,0,0,.61,2.184l-.357.482.821.45-.762.209a2.743,2.743,0,0,1,.211.5,2.544,2.544,0,0,1,.008.529L18.491,7.7l-.62.068.228.315c-.08.191-.169.4-.268.64-1.176-.057-1.185,1.155-1.912,1.627l.265.349-1.465,1.465c.04.036-.024-.021,0,0l-.672.672-.22-.172v.7L13.383,13l.116.78L12.329,15.3l-.447-.329-1.473,1.722.626.311-.64.812c.031.108.031.208.081.264A21.585,21.585,0,0,1,12.89,20.83C13.605,21.981,14.5,23.17,14.082,24.737Z" transform="translate(1253.493 1631.89)" fill="#fad104"/><path d="M2.7,23.054l.211-.211a1.421,1.421,0,0,0-.146-.185c-.346-.316-.784-.587-1.064-.9s-.583-.534-.861-.811a2.429,2.429,0,0,1-.8-1.372,9.608,9.608,0,0,1,.116-2.593,7.561,7.561,0,0,1,2.22-3.763c1.354-1.348,2.7-2.7,4.123-4.121-.539-.464-.567-1.34-1.42-1.511L4,5.5a4.191,4.191,0,0,1-.268-2.026c0-.49,0-.979,0-1.469L5.073.29H7.3L6.338,1.931c.823.6,1.126-.7,1.849-.3.451.618-.389.909-.655,1.507L8.71,2.853a2.045,2.045,0,0,1-.233,1.788l.543.211c.154.166-.166.19-.221.434l.8,1.223C11.8,4.194,14.615,2.643,16.334,0h1.341l-.317,1.353L18.41.982V2.019l.456.12a.852.852,0,0,1,.1.226c.016.131-.018.271.008.4a4.543,4.543,0,0,1-1.144,3.529c-.784,1.125-1.695,2.163-2.615,3.32a17.653,17.653,0,0,0,2.631,1.908c.017.122.045.326.078.562.245.306.641.6.753.983.246.834.855,1.61.441,2.686-.1.046-.323.155-.551.252s-.459.18-.717.28c-.354-.36-1.153-.246-1.046-.946l-2.23-.645-.467-.812H12.626c-.037-.159-.066-.28-.1-.429-.546-.42-1,.074-1.324.16l-1.139,1.32-.338-.256-.535.756.139.179c-.619.155-.673.778-.946,1.29l-.57-.351c-.037.23-.073.456-.116.722l-.427.116c-.057.542-.134,1.2-.937,1.021-.27.349-.721.674-.691.945.092.813-.589,1.2-.774,1.837a1.7,1.7,0,0,0,.174,1.339,5.186,5.186,0,0,1-1.993.968Z" transform="translate(1283.424 1614.25)" fill="#fad104"/><path d="M14.957,8l-.786.1.382.422c-.332.617-.961.987-1.387,1.527l.209.209-.969.76c-.16.421.181.9-.381,1.157.5.334.953.632,1.4.94a20.982,20.982,0,0,1,4.06,3.107,3.87,3.87,0,0,1,1.3,2.543c0,.181.186.359.332.624l-1.255.793a61.548,61.548,0,0,1-7.955-5c-.181.1-.577.191-.65.394A5.375,5.375,0,0,1,7.821,17.53c-.071.071-.044.238-.063.361l-.779.085.206.7a3.524,3.524,0,0,0-1.1,1.868,5.41,5.41,0,0,1-.958,1.4v2.9l-.7.045-.172.485H3.331l-.462-1.339-.817.359-.162-.5c-.075-.031-.159-.1-.227-.088A.919.919,0,0,1,.641,23.14C.357,21.9-.445,20.676.325,19.346c.014-1.317.832-2.323,1.3-3.468.151-.374.8-.308.626-.954-.073-.266.41-.687.647-1.032a10.221,10.221,0,0,1,.665-.924c.291-.336.644-.617.933-.954a11.136,11.136,0,0,0,.659-.954A18.724,18.724,0,0,1,1.395,6.49C1.029,4.927.4,3.409.645,1.578L2.018,0c.572.118,1.216-.237,1.739.359L2.731,1.742,3,2.028c.725.15.991-.906,1.749-.661l.343.665-.781.5.423.423c.378-.392.746-.4,1.19.139-.04.3.191.73-.255,1.077l.626.3-.6.8.659.234-.686.185c.026.217-.026.514.1.68.512.688,1.076,1.336,1.681,2.072.333-.3.589-.521.837-.752,1.462-1.363,2.686-3,4.5-3.964-.01-.5.516-.467.742-.736.256-.3.541-.585.725-.781h.9c-.407.6-1.1.938-.875,1.8l1.84-1.1c-.062.4-.11.7-.164,1.047l.988.5-.28.58.388.081c.013.052.064.141.04.173a7.225,7.225,0,0,0-.968,1.314C15.862,7.221,15.289,7.5,14.957,8Z" transform="translate(1193 1614.199)" fill="#fad104"/><path d="M6.407,7.97C7.472,6.663,8.371,5.577,9.252,4.476a24.489,24.489,0,0,0,2.2-3.323l-.3-.371L11.835,0h.881c.329.329.594.8.971.919.46.146.525.514.711.789a3.158,3.158,0,0,1,.6,3.16q-.457,1.145-.929,2.286c-.1.229-.165.469-.286.817l-.675.675v.841l-1.449,2.627c.665.452,1.278.888,1.909,1.294a7.428,7.428,0,0,1,2.9,3.183,9.83,9.83,0,0,1,.332,1.087l-.292.649L15.7,18.7c-.628-.217-1.184-.379-1.715-.6s-1.039-.5-1.557-.753c-.088-.774-.97-.461-1.334-.988-.3-.432-.961-.612-1.542-.951a43.013,43.013,0,0,0-4.683,5.763c-.108.157-.074.412-.1.621a1.406,1.406,0,0,1-1.829-.029v-.425l-2.344-1.4C.206,19.483.4,18.768.15,18.215-.131,17.6.107,17,0,16.551a16.712,16.712,0,0,1,3.429-5.186v-.91A7.407,7.407,0,0,1,1.48,7.989a3.8,3.8,0,0,1-.3-1.077,8.785,8.785,0,0,1-.4-2.242A3.3,3.3,0,0,1,3.115,1.555,10.281,10.281,0,0,1,5.873,1.29c-.524,1.085-1.779.992-2.513,1.9C4.626,3.135,5.4,1.943,6.687,2.171L6.534,3.1l.918.325v1.7c-.344.6-.722,1.2-1.03,1.832C6.323,7.157,6.407,7.45,6.407,7.97Z" transform="translate(1225.947 1627.876)" fill="#fad104"/><path d="M10.09,14.208,8.628,16.042v1.715l-1.444.58A4.349,4.349,0,0,1,6.13,16.214l-.837.311a7.2,7.2,0,0,1-.774-1.138,8.258,8.258,0,0,1-.429-3.754l.667-1.522c-.37-.055-.7,0-.833-.141-.864-.873-1.716-1.761-2.507-2.7A4.837,4.837,0,0,1,.371,5.578,19.6,19.6,0,0,1,0,2.7,9.728,9.728,0,0,1,1.254,1,9.1,9.1,0,0,1,3.137,0l.5.545L2.238,1.9l.328.328c.6-.436,1.192-1.006,2.164-.63L3.971,2.633l1.04-.4.549.828L4.552,4.065l.549.113c-.3.511-.132,1.217-.913,1.478A10.067,10.067,0,0,0,6.7,7.715L15.451.46H16.74c-.226.453-.405.814-.587,1.18.387.3.693-.036,1.037-.185a3.539,3.539,0,0,1,1.02,3.367L16.944,6.447l.269.248-.7.089.269.289h-.5c-.916,1.724-2.464,2.9-3.6,4.467,1.554.865,3.292,1.509,4.936,2.489.05.247.106.527.173.859l.5-.528c.662.089.648.85,1.2,1.128.486.244.77.892,1.148,1.367v1.587l-.431.431a11.252,11.252,0,0,1-3.767-1.565l-.159.144c-.877-.217-1.4-1.158-2.411-1.017-.471-.606-1.247-.653-1.852-1.011S10.826,14.672,10.09,14.208Z" transform="translate(1244.849 1605)" fill="#fad104"/><path d="M4.342,3.064l.812.458c-.073.435-.146.874-.236,1.414.224.389.412.982,1.091,1.221.3-.424.491-.91,1.077-1.147.411-.167.653-.753.968-1.153a8.032,8.032,0,0,0,1.1-1.278c.229-.451.722-.76,1.034-1.181S10.753.471,11.029,0h1.507a1.119,1.119,0,0,1-.288,1.276l1.065.049c.136.623.258,1.188.379,1.74l-.551.215a1.677,1.677,0,0,0,.06.359,1.4,1.4,0,0,1-.4,1.946,1.05,1.05,0,0,0-.3,1.044c.191.452-.383.278-.112.695l-.533-.44v.744l-.816.156V8.52l-.784.818L11.5,10.565v1.007l.9.9c-.1.171-.157.278-.265.467l.534,1.086-.813,1.7H10.743l-3.81-2.182-.549.849-.717-.349v1.244l-1.223-.455.4.54-.914.859c-.082-.5-.134-.809-.19-1.152l.533-.184.07-.371-.48-.166c.057-.236.116-.474.215-.878l-.4.367L2,13.528c-.087-.168-.2-.386-.334-.642.1-.391.216-.835.332-1.288l.925.153c.014-.049.027-.1.041-.148l-1-.5.542-1.121A24.341,24.341,0,0,1,.127,5.457,7.694,7.694,0,0,1,.347,2.135,2.816,2.816,0,0,1,1.953.243C2.063.181,2.168.11,2.344,0H3.673L4.2.532l-.686.685v.822l.9-.233.541.505Z" transform="translate(1289.52 1637.498)" fill="#fad104"/><path d="M10.084.146,10.539.6,8.092,2.693l.055.141a1.435,1.435,0,0,0,.51-.161c.235-.2.42-.452.743-.516L11.1,1.2c.484.392.131.7-.077,1.176l.743-.282.349.349c0,.534,0,1.068,0,1.608l-.483.471c.025.062.031.147.076.18.3.228.607.459.928.662.345.218.827.28.84.838,0,.064.11.137.182.187a5.034,5.034,0,0,1,.821.58,5.551,5.551,0,0,1,.576.954c0,.226,0,.582,0,.938l-.625.625L9.412,7.693l-1.167.622-.05-.081L7.059,9.369c-.006.105-.019.312-.035.576L4.994,11.9c-.3.923-.147,1.871-1.376,2.065-.254-.407-1.168-.472-.96-1.42l-.9-.262-.321.215L.354,11.351,0,8.328,3.364,4.69a13.805,13.805,0,0,1-1.323-.843A14.943,14.943,0,0,1,.889,2.713c.107-.346.217-.7.334-1.082L.657,1.436v-.9L.936.255,2.215,0,6.384,2.339C7.792,1.8,8.705.568,10.084.146Z" transform="translate(1203.399 1654.144)" fill="#fad104"/></g></svg>