<svg xmlns="http://www.w3.org/2000/svg" width="149.609" height="186.178" viewBox="0 0 149.609 186.178">
  <g id="_46" data-name="46" transform="translate(-209 -4243)">
    <path id="Fill_167" data-name="Fill 167" d="M2.078,35.325C8.262,22.949,15.842,11.476,23.853.309c.916.235.111.806.438,1.166.519.24,1.1-1.011,1.764.1a2.3,2.3,0,0,1-.182,2.583c-2.274,4.173-5.559,7.7-7.541,12.1-.678,1.5-.975,3.347-2.648,4.52-1.03.721-.787,2.545-1.7,3.746-.57.752-.886,1.8-1.52,2.654a22.411,22.411,0,0,0-4.4,11.4c-.075.757-.39,1.442-1.092,1.465-1.913.064-3.813.857-5.688-.817a3.284,3.284,0,0,1-1.1-3.782,39.994,39.994,0,0,1,4.577-9.76c2.114-3.641,4.515-7.111,6.754-10.672C14.532,10.225,17.9,5.7,21.1,1.053c.3-.442.6-1.356,1.263-.953.5.3-.027,1.026-.314,1.466-1.808,2.775-3.743,5.455-5.726,8.113a80.077,80.077,0,0,0-5.08,8.1c-2.564,4.468-5.389,8.786-7.709,13.393A11.792,11.792,0,0,0,2.078,35.325Z" transform="translate(229.439 4243)" fill="#fad104"/>
    <path id="Fill_169" data-name="Fill 169" d="M6.763,27.4c-1.162.934-2-.52-2.37-.815-.994-.8-2.552.025-2.94-.92C.866,24.238-.4,23.027.125,21.111A97.655,97.655,0,0,1,4.112,10.374a43.708,43.708,0,0,1,3.542-7.5,6.3,6.3,0,0,1,2.6-2.494A2.79,2.79,0,0,1,13.6.77a27.543,27.543,0,0,1,2.7,2.032c.739.8,1.326,1.641.454,2.734-.612.766-.5,1.771-.809,2.645-1.238,3.512-1.709,7.294-3.7,10.541a63.232,63.232,0,0,0-3.7,7.573C8.219,27.031,7.9,27.921,6.763,27.4Z" transform="translate(214.979 4304.333)" fill="#fad104"/>
    <path id="Fill_171" data-name="Fill 171" d="M16.829,0,16.21,1.395c.2.263.388.106.589.05.411-.116.553-.9,1.051-.589.6.381-.172.837-.126,1.288.659.153.835-.661,1.373-.684.834,1.282.4,2.315-.38,3.465A42.642,42.642,0,0,0,13.548,14.93c-.464,1.357-2.2,2.021-2.237,3.6a9.17,9.17,0,0,1-2.024,5.163c-1.81,2.468-2.2,5.372-3.275,8.054-.3.755.112,1.684-.633,2.3-.241.2-.619.655-.776.271-.539-1.312-1.59-.68-2.459-.9C.53,33.016.212,31.433.054,30.041A11.956,11.956,0,0,1,1.33,23.769,117.039,117.039,0,0,1,13.6,2.469C14.352,1.459,15.022.192,16.829,0Z" transform="translate(278.164 4305.436)" fill="#fad104"/>
    <path id="Fill_173" data-name="Fill 173" d="M20.388,2.849c-.374,1.166-.735,2.385-1.156,3.585A163.949,163.949,0,0,1,9.374,28.413,72.578,72.578,0,0,0,5.2,36.679c-.31.835-.868,1.494-1.864.606a2.667,2.667,0,0,0-.894-.414A3.281,3.281,0,0,1,.219,32.408,26.243,26.243,0,0,1,3.3,26.339,172.18,172.18,0,0,0,16.686.885c.458-1.132.591-1.131,1.395-.269a.543.543,0,0,0,.392.15C19.972.632,20.108,1.731,20.388,2.849Z" transform="translate(252.024 4272.851)" fill="#fad104"/>
    <path id="Fill_175" data-name="Fill 175" d="M12.926,0C11.554,3.378,9.309,5.963,8,9.022,6.679,12.114,5.079,15.095,4.249,18.4c1.2-2.646,2.4-5.3,3.611-7.938a84.768,84.768,0,0,1,4.889-8.692C13.619.339,14.6.411,15.576,1.2a1.93,1.93,0,0,1,.254,2.961,14.817,14.817,0,0,0-3.538,6.484c-1.167,4.012-3.22,7.73-3.838,11.92-.142.966-.841,1.789-.985,2.865A5.16,5.16,0,0,0,7.845,28.8c.348.655,1.206,1.517.444,2.248a2.129,2.129,0,0,1-2.576.492,3.715,3.715,0,0,0-1.471-.089c-2.9-.1-4.609-1.986-4.177-4.91A45.476,45.476,0,0,1,3.673,15.335,71.992,71.992,0,0,1,10.94,1.712,3.647,3.647,0,0,1,12.926,0Z" transform="translate(209 4361.12)" fill="#fad104"/>
    <path id="Fill_177" data-name="Fill 177" d="M4.3,28.07C.377,28.062-.805,26.343.523,23.089a27.542,27.542,0,0,1,4.51-6.744c3.981-4.9,8.124-9.668,12.535-14.2A8.05,8.05,0,0,1,21.3.229C21.77.086,22.816-.2,22.776.212c-.083.836.756,1.6,0,2.491-3.374,4-6.384,8.272-9.5,12.465-1.375,1.849-2.9,3.592-4.221,5.475-.9,1.274-1.811,2.65-.9,4.365.109.2.053.742-.044.774C6.555,26.3,5.618,27.95,4.3,28.07Z" transform="translate(296.646 4370.019)" fill="#fad104"/>
    <path id="Fill_179" data-name="Fill 179" d="M7.063,10.141c2.016-2.264,3.27-5.018,5.257-7.269A23.28,23.28,0,0,0,14.108.916c.826-1.188,1.676-.282,2.223.092a1.388,1.388,0,0,1,.21,2,56.635,56.635,0,0,0-5.762,10.443C9.66,16.036,7.8,18.3,7.416,21.308a23.793,23.793,0,0,1-1.357,3.728c-.577,1.7-1.762.293-2.676.231-.144-.01-.272-.434-.4-.431-.563.008-.894,1.441-1.554.447C.53,23.932-.425,22.659.2,20.664a41.62,41.62,0,0,1,4.193-8.827C6.661,8.037,8.751,4.1,11.976.965c.238-.231.456-.485.71-.7s.615-.4.9-.136c.358.342.168.755-.145,1.012-2.735,2.239-4.1,5.469-6.014,8.3A6.492,6.492,0,0,0,7.063,10.141Z" transform="translate(334.008 4299.072)" fill="#fad104"/>
    <path id="Fill_181" data-name="Fill 181" d="M19.092,3.458a23.345,23.345,0,0,0,2.5-2.409A2.251,2.251,0,0,1,24.5.224c.69.274.543,1,.477,1.459a3.047,3.047,0,0,1-2.022,2.525c-.274.1-.688-.107-.687.389.006,2.425-2.12,3.715-3.034,5.658-.281.6-.8,1.161-1.171,1.771-1.074,1.783-1.953,3.72-4.231,4.4-.531.159-1.371.634-1.085,1.44.875,2.459-.848,4.1-1.825,5.924-1.606,3-3.644,5.747-5.133,8.816-.168.346-.272.838-.755.718-.6-.15.2-.686-.222-1-.752.4-1.412,1.482-2.46.206-.374-.455-.923.314-1.192.8-.2.367-.43.713-.891.443C-.3,33.446.186,33.1.333,32.8a125.047,125.047,0,0,1,9.441-15.57l9.09-13.241Z" transform="translate(254.513 4362.008)" fill="#fad104"/>
    <path id="Fill_183" data-name="Fill 183" d="M5.9,18.716a.073.073,0,0,1-.065-.029c-.053-.074.02-.281.09-.481s.144-.41.092-.483a.072.072,0,0,0-.063-.028,1.681,1.681,0,0,0-.674.4.352.352,0,0,1-.135.071.022.022,0,0,1-.009,0A2.265,2.265,0,0,0,3.763,17.6a2.148,2.148,0,0,0-1.527.787.076.076,0,0,1-.057.021A5.858,5.858,0,0,1,.01,15.842a5.28,5.28,0,0,1,.609-2.73A33.99,33.99,0,0,1,10.664,1.146,5.3,5.3,0,0,1,13.9,0a6.92,6.92,0,0,1,3.237.915c.553.3.847.62.9.987.054.4-.176.835-.705,1.345A42.692,42.692,0,0,0,14.4,6.382c-.412.488-.8,1-1.183,1.5l0,.006-.006.007a24.786,24.786,0,0,1-1.928,2.329,11.8,11.8,0,0,0-2.116,3.532,21.022,21.022,0,0,1-1.067,2.147q-.111.185-.22.372a7.631,7.631,0,0,1-1.91,2.428A.244.244,0,0,1,5.9,18.716ZM8.125,5.855c-2.4,1.8-5.213,5.92-5.8,8.487,1.991-3.08,3.8-5.843,5.8-8.487h0Z" transform="translate(300.618 4331.707)" fill="#fad104"/>
    <path id="Fill_185" data-name="Fill 185" d="M11.032,0l-.616,2.1c.373-.288.6-.376.669-.533C11.64.3,12.662.626,13.467,1.037a1.753,1.753,0,0,1,.741,2.291A26.375,26.375,0,0,1,12.2,7.39a33.624,33.624,0,0,0-3.079,5.4c-.779,2.013-1.915,3.972-1.43,6.339A1.157,1.157,0,0,1,5.97,20.445a3.214,3.214,0,0,0-1.6-.194C.895,20.424-.9,17.961.45,14.644c1.9-4.675,4.973-8.627,8.171-12.471C9.232,1.439,9.653.461,11.032,0Z" transform="translate(344.246 4353.285)" fill="#fad104"/>
    <path id="Fill_187" data-name="Fill 187" d="M1.778,30.817c-.021,1.248,1.032,1.854,1.178,2.851-1.539.21-2.509-.625-2.846-2.343a7.041,7.041,0,0,1,1.126-5.074C3.169,23.085,4.782,19.737,7.482,17c1.056-1.07,1.786-2.8,2.814-4.094,2.928-3.69,5.985-7.279,9-10.9A7.889,7.889,0,0,1,21.455.2a1.017,1.017,0,0,1,1.239.02.854.854,0,0,1,.141,1.2,14.177,14.177,0,0,1-1.11,1.848C17.645,8.451,13.455,13.551,9.49,18.82A24.513,24.513,0,0,0,5.909,25.7c-.384,1.139.028,2.388.158,3.585.035.326.49.77-.087,1.015-1.108.471-2.036.936-1.062,2.379.222.328-.282.5-.633.51-.627.015-1.349,0-1.423-.774C2.795,31.7,2.39,31.332,1.778,30.817Z" transform="translate(226.861 4395.478)" fill="#fad104"/>
    <path id="Fill_189" data-name="Fill 189" d="M11.575,5.11c-.359-.255-.561-.3-.718.078a33.942,33.942,0,0,1-1.8,4.135c-.452.781-.354,2.392-2.084,1.922-.275-.075-.219.272-.094.468.292.458.111.795-.205,1.18a2.7,2.7,0,0,0-.548,2.287c.26,1.664-.9,2.475-2.42,1.792-.183-.083-.507-.36-.524-.245-.389,2.711-1.858-.884-2.458.43a1.984,1.984,0,0,1-.713-1.438,6.208,6.208,0,0,1,1.059-3.607C3.444,7.873,6.837,4.489,10.317,1.2,11.155.4,12.418.358,13.5.039c.637-.188,1.013.34,1.255.845.331.692-.034.764-.6.579a6,6,0,0,1-1.553,3.043C12.313,4.921,12.123,5.423,11.575,5.11Z" transform="translate(243.63 4336.06)" fill="#fad104"/>
    <path id="Fill_191" data-name="Fill 191" d="M.113,33.206v0a7.508,7.508,0,0,1,.022-2.661,10.438,10.438,0,0,0,.127-1.8A.876.876,0,0,0,.283,28.6a6.278,6.278,0,0,0,1.593-2.635c.159-.4.323-.814.517-1.2a5.557,5.557,0,0,0,.278-.715,3.858,3.858,0,0,1,.419-.955c1.111-1.635,2.151-3.349,3.157-5.006l0-.007a82.391,82.391,0,0,1,4.559-6.967c.878-1.162,1.722-2.36,2.537-3.518,1.3-1.845,2.644-3.753,4.121-5.517.072-.085.142-.172.213-.259L17.7,1.8a6.7,6.7,0,0,1,2-1.8c-.521.945-.972,1.76-1.392,2.52l-.175.316-.746,1.35a1.609,1.609,0,0,0,.046-.155,11.535,11.535,0,0,0-2.446,3.025,15.634,15.634,0,0,1-1.713,2.354.67.67,0,0,0,.413.2.542.542,0,0,0,.331-.149.566.566,0,0,1,.212-.12.8.8,0,0,1,.164-.018c.307,0,.55.2.725.585l.026.055c.062.13.13.274.082.375a.21.21,0,0,1-.153.106c-1.086.281-1.065,1.066-1.044,1.826,0,.159.009.324,0,.479a2.229,2.229,0,0,1-1.316,1.917,2.954,2.954,0,0,0-1.719,3q-.3.452-.608.9c-1.256.617-3.072,3.647-2.945,4.914a1.181,1.181,0,0,0-.7.439A1.132,1.132,0,0,1,6,24.352a.859.859,0,0,1-.486-.18A6.117,6.117,0,0,1,4.4,28.118a11.047,11.047,0,0,0-.961,2.048c-.013.042-.052.063-.117.063a1.144,1.144,0,0,1-.246-.042,1.385,1.385,0,0,0-.273-.044.167.167,0,0,0-.15.06c-.048.071-.03.208.054.417a.774.774,0,0,0,.728.455A1,1,0,0,0,4.1,30.8a2.364,2.364,0,0,0-.291.743c-.157.586-.32,1.19-1.38,1.257-.066,0-.128.006-.187.006a.824.824,0,0,1-.608-.174.848.848,0,0,1-.119-.637c0-.071.007-.15.007-.229-.5.045-.63.371-.767.716-.121.3-.246.617-.645.723Zm4.831-9.868c-.169,0-.384.187-.7.6A5.976,5.976,0,0,0,3.4,25.867a4.893,4.893,0,0,1-1.11,2.209.354.354,0,0,0-.114.292.369.369,0,0,0,.19.268.535.535,0,0,0,.274.085A.364.364,0,0,0,3,28.388a5.288,5.288,0,0,1,.805-1.863,6.019,6.019,0,0,0,.743-1.574c.133-.518.266-.885.77-.885a1.062,1.062,0,0,1,.116.006C5.283,23.643,5.158,23.338,4.945,23.338Zm4.543-7.954h0l-.362.572-.187.3-.014.021c-.589.931-1.2,1.894-1.784,2.851l-.011.018a.571.571,0,0,0-.121.389.268.268,0,0,0,.134.164.607.607,0,0,0,.3.085.244.244,0,0,0,.264-.175,6.029,6.029,0,0,1,1.1-1.961A5.983,5.983,0,0,0,9.9,15.688l-.148-.109-.1-.077Z" transform="translate(294.849 4257.332)" fill="#fad104"/>
    <path id="Fill_193" data-name="Fill 193" d="M1.214,13.4a3.594,3.594,0,0,0,.222,2.583c.157.425.276.748-.234.925-.465.161-.751-.166-.916-.521a3.96,3.96,0,0,1-.067-2.775A23.888,23.888,0,0,1,5.161,4.861,18.8,18.8,0,0,0,7.1,2.531c.931-1.559,2.515-2,4.025-2.5.705-.23.84.716.985,1.225a1.177,1.177,0,0,1-.392,1.027c-2.51,1.642-2.914,4.7-4.617,6.9-.561.725-.3,2.195-1.029,3.157-.573.76-.881,1.711-1.946,2.073-.614.208-.149,1-.427,1.469-.142.241-.23.532-.533.571s-.683-.219-.628-.412C2.908,14.748,1.376,14.417,1.214,13.4Z" transform="translate(335.544 4385.531)" fill="#fad104"/>
    <path id="Fill_195" data-name="Fill 195" d="M20.559,3.875l-.228.535a41.43,41.43,0,0,0-5.709,6.617c-2.374,3.207-4.522,6.6-6.589,10.013-1.75,2.893-3.982,5.492-5.209,8.714A6.6,6.6,0,0,1,.057,33.149c-.34-1.969.914-3.231,1.637-4.619A92.817,92.817,0,0,1,8.371,18.157c4.268-6.068,8.278-12.343,13.6-17.6.3-.3.548-.714,1.28-.491C22.771,1.656,21.243,2.493,20.559,3.875Z" transform="translate(253.045 4361.591)" fill="#fad104"/>
    <path id="Fill_197" data-name="Fill 197" d="M1.452,9.825c-.655.48.117,1.775-.886,1.565-.854-.18-.546-1.222-.331-1.884A15.3,15.3,0,0,1,7.993.4C8.569.1,9.4-.363,9.937.488c.473.755-.259,1.214-.676,1.686-1.75,1.983-3.41,4.007-3.847,6.74C5.3,9.6,4.748,9.848,4.18,10.08a1.491,1.491,0,0,0-.538.373C2.532,11.716,1.694,11.849,1.452,9.825Z" transform="translate(336.756 4332.405)" fill="#fad104"/>
    <path id="Fill_199" data-name="Fill 199" d="M6.462,0C6.279,2.04,4.535,3.165,3.587,4.753A12.244,12.244,0,0,1,1.19,8.2c-.279.232-.391.744-.852.485A.679.679,0,0,1,.144,7.665,66.5,66.5,0,0,1,4.866.745c.42-.511,1.084-.5,1.644-.7Z" transform="translate(297.476 4268.752)" fill="#fad104"/>
    <path id="Fill_201" data-name="Fill 201" d="M.27,10.4C.062,9.95-.18,9.531.2,9.015A90.519,90.519,0,0,1,6.937.485c.193-.205.3-.692.734-.387.276.193.207.492.018.731C5.256,3.9,2.9,7.033.685,10.275c-.062.091-.3.061-.463.087Z" transform="translate(303.715 4258.391)" fill="#fad104"/>
    <path id="Fill_203" data-name="Fill 203" d="M1.683,7.148a.968.968,0,0,1-.021.143C1.368,8.034.726,8.636.781,9.525c.02.317.062.766-.42.725-.431-.037-.373-.438-.335-.779A32.237,32.237,0,0,1,2.543.812c.2-.479.775-.994,1.3-.748.625.291.153.908-.068,1.27A20.59,20.59,0,0,0,1.683,7.148Z" transform="translate(293.449 4278.783)" fill="#fad104"/>
    <path id="Fill_205" data-name="Fill 205" d="M1.137,2.769c-.013.053-.029.1-.046.154C1.793,2.209,3.016,2,3.135.68c.02-.218.573-1.013,1.133-.523.532.466-.036.959-.344,1.25A11.062,11.062,0,0,0,.794,6.215C.259,5.591-.54,5.183.524,4.424,1.1,4.017.867,3.3,1.137,2.769Z" transform="translate(311.148 4258.593)" fill="#fad104"/>
    <path id="Fill_207" data-name="Fill 207" d="M.446,1.476l.608-.9L1.785,0l.257.178-1.682,3L0,3.06Z" transform="translate(304.793 4274.414)" fill="#fad104"/>
    <path id="Fill_209" data-name="Fill 209" d="M.074,5.348c-.326-1.148.51-1.911.949-2.8.43-.868.931-1.7,1.4-2.552a1.343,1.343,0,0,1-.114,1.238C1.539,2.593.816,3.976.074,5.348Z" transform="translate(299.529 4281.919)" fill="#fad104"/>
  </g>
</svg>
